<svg width="153" height="124" viewBox="0 0 153 124" fill="none" xmlns="http://www.w3.org/2000/svg">
<circle cx="58.5" cy="74.5" r="47.5" fill="#B55C57"/>
<path d="M20.288 123.536C16.96 123.536 14.1867 122.768 11.968 121.232C9.792 119.696 8.17067 117.648 7.104 115.088C6.03733 112.528 5.504 109.776 5.504 106.832C5.504 104.443 5.90933 102.757 6.72 101.776C7.57333 100.752 8.59733 100.24 9.792 100.24C10.9867 100.24 11.904 100.709 12.544 101.648C13.184 102.587 13.504 104.059 13.504 106.064C13.504 107.259 13.2907 108.325 12.864 109.264C12.4373 110.203 12.0107 111.163 11.584 112.144C11.2 113.083 11.008 114.213 11.008 115.536C11.008 116.517 11.3067 117.541 11.904 118.608C12.5013 119.675 13.4187 120.592 14.656 121.36C15.936 122.085 17.5573 122.448 19.52 122.448C22.1227 122.448 24.1493 121.339 25.6 119.12C27.0507 116.859 28.0747 113.637 28.672 109.456C29.2693 105.275 29.568 100.261 29.568 94.416C29.568 88.912 29.3333 84.4107 28.864 80.912C28.3947 77.3707 27.7333 74.6187 26.88 72.656C26.0693 70.6507 25.1093 69.264 24 68.496C22.9333 67.6853 21.7813 67.28 20.544 67.28C18.5813 67.28 16.8747 67.7707 15.424 68.752C14.016 69.6907 12.8 71.0347 11.776 72.784C10.7947 74.4907 9.92 76.496 9.152 78.8L8 78.608L11.84 32.4H12.928C13.2267 33.2533 14.2507 34.1067 16 34.96C17.7493 35.7707 19.7547 36.4533 22.016 37.008C24.2773 37.52 26.3253 37.776 28.16 37.776C31.0613 37.776 33.536 37.2427 35.584 36.176C37.6747 35.1093 38.72 33.8507 38.72 32.4H39.296C39.296 34.9173 38.8693 37.1787 38.016 39.184C37.2053 41.1893 35.9467 42.768 34.24 43.92C32.576 45.072 30.464 45.648 27.904 45.648C25.856 45.648 23.9573 45.2427 22.208 44.432C20.4587 43.6213 18.9013 42.6187 17.536 41.424C16.2133 40.1867 15.1467 38.9707 14.336 37.776C13.5253 36.5387 13.056 35.536 12.928 34.768L9.536 75.984C9.96267 74.2347 10.7093 72.5707 11.776 70.992C12.8853 69.3707 14.2933 68.048 16 67.024C17.7493 66 19.776 65.488 22.08 65.488C24.2987 65.488 26.432 66 28.48 67.024C30.5707 68.0053 32.4693 69.6053 34.176 71.824C35.8827 74 37.2267 76.9227 38.208 80.592C39.1893 84.2613 39.68 88.784 39.68 94.16C39.68 100.091 39.0827 104.976 37.888 108.816C36.6933 112.613 35.136 115.6 33.216 117.776C31.296 119.909 29.2053 121.403 26.944 122.256C24.6827 123.109 22.464 123.536 20.288 123.536Z" fill="white"/>
<path d="M41.6818 67V65.125H42.1591C42.5511 65.125 42.8778 65.0483 43.1392 64.8949C43.4006 64.7358 43.6108 64.4602 43.7699 64.0682C43.9347 63.6705 44.0597 63.1193 44.1449 62.4148C44.2358 61.7045 44.3011 60.8011 44.3409 59.7045L44.5795 53.9091H53.3068V67H51.2955V55.7841H46.4886L46.2841 60.4545C46.2386 61.5284 46.142 62.4744 45.9943 63.2926C45.8523 64.1051 45.6335 64.7869 45.3381 65.3381C45.0483 65.8892 44.6619 66.304 44.179 66.5824C43.696 66.8608 43.0909 67 42.3636 67H41.6818ZM62.4858 67.2727C61.2244 67.2727 60.1364 66.9943 59.2216 66.4375C58.3125 65.875 57.6108 65.0909 57.1165 64.0852C56.6278 63.0739 56.3835 61.8977 56.3835 60.5568C56.3835 59.2159 56.6278 58.0341 57.1165 57.0114C57.6108 55.983 58.2983 55.1818 59.179 54.608C60.0653 54.0284 61.0994 53.7386 62.2812 53.7386C62.9631 53.7386 63.6364 53.8523 64.3011 54.0795C64.9659 54.3068 65.571 54.6761 66.1165 55.1875C66.6619 55.6932 67.0966 56.3636 67.4205 57.1989C67.7443 58.0341 67.9062 59.0625 67.9062 60.2841V61.1364H57.8153V59.3977H65.8608C65.8608 58.6591 65.7131 58 65.4176 57.4205C65.1278 56.8409 64.7131 56.3835 64.1733 56.0483C63.6392 55.7131 63.0085 55.5455 62.2812 55.5455C61.4801 55.5455 60.7869 55.7443 60.2017 56.142C59.6222 56.5341 59.1761 57.0455 58.8636 57.6761C58.5511 58.3068 58.3949 58.983 58.3949 59.7045V60.8636C58.3949 61.8523 58.5653 62.6903 58.9062 63.3778C59.2528 64.0597 59.733 64.5795 60.3466 64.9375C60.9602 65.2898 61.6733 65.4659 62.4858 65.4659C63.0142 65.4659 63.4915 65.392 63.9176 65.2443C64.3494 65.0909 64.7216 64.8636 65.0341 64.5625C65.3466 64.2557 65.5881 63.875 65.7585 63.4205L67.7017 63.9659C67.4972 64.625 67.1534 65.2045 66.6705 65.7045C66.1875 66.1989 65.5909 66.5852 64.8807 66.8636C64.1705 67.1364 63.3722 67.2727 62.4858 67.2727ZM69.7472 55.7841V53.9091H80.3835V55.7841H76.0881V67H74.0767V55.7841H69.7472ZM50.9205 82.9091V84.7841H44.8523V96H42.8409V82.9091H50.9205ZM57.0291 96.3068C56.1996 96.3068 55.4467 96.1506 54.7706 95.8381C54.0945 95.5199 53.5575 95.0625 53.1598 94.4659C52.7621 93.8636 52.5632 93.1364 52.5632 92.2841C52.5632 91.5341 52.7109 90.9261 53.0064 90.4602C53.3018 89.9886 53.6967 89.6193 54.1911 89.3523C54.6854 89.0852 55.2308 88.8864 55.8274 88.7557C56.4297 88.6193 57.0348 88.5114 57.6428 88.4318C58.4382 88.3295 59.0831 88.2528 59.5774 88.2017C60.0774 88.1449 60.4411 88.0511 60.6683 87.9205C60.9013 87.7898 61.0178 87.5625 61.0178 87.2386V87.1705C61.0178 86.3295 60.7876 85.6761 60.3274 85.2102C59.8729 84.7443 59.1825 84.5114 58.2564 84.5114C57.2962 84.5114 56.5433 84.7216 55.9979 85.142C55.4524 85.5625 55.0689 86.0114 54.8473 86.4886L52.9382 85.8068C53.2791 85.0114 53.7337 84.392 54.3018 83.9489C54.8757 83.5 55.5007 83.1875 56.1768 83.0114C56.8587 82.8295 57.5291 82.7386 58.1882 82.7386C58.6087 82.7386 59.0916 82.7898 59.6371 82.892C60.1882 82.9886 60.7195 83.1903 61.2308 83.4972C61.7479 83.804 62.1768 84.267 62.5178 84.8864C62.8587 85.5057 63.0291 86.3352 63.0291 87.375V96H61.0178V94.2273H60.9155C60.7791 94.5114 60.5518 94.8153 60.2337 95.1392C59.9155 95.4631 59.4922 95.7386 58.9638 95.9659C58.4354 96.1932 57.7905 96.3068 57.0291 96.3068ZM57.3359 94.5C58.1314 94.5 58.8018 94.3438 59.3473 94.0312C59.8984 93.7188 60.3132 93.3153 60.5916 92.821C60.8757 92.3267 61.0178 91.8068 61.0178 91.2614V89.4205C60.9325 89.5227 60.745 89.6165 60.4553 89.7017C60.1712 89.7812 59.8416 89.8523 59.4666 89.9148C59.0973 89.9716 58.7365 90.0227 58.3842 90.0682C58.0376 90.108 57.7564 90.142 57.5405 90.1705C57.0178 90.2386 56.5291 90.3494 56.0746 90.5028C55.6257 90.6506 55.2621 90.875 54.9837 91.1761C54.7109 91.4716 54.5746 91.875 54.5746 92.3864C54.5746 93.0852 54.8331 93.6136 55.3501 93.9716C55.8729 94.3239 56.5348 94.5 57.3359 94.5ZM66.7003 100.909V82.9091H68.6435V84.9886H68.8821C69.0298 84.7614 69.2344 84.4716 69.4957 84.1193C69.7628 83.7614 70.1435 83.4432 70.6378 83.1648C71.1378 82.8807 71.8139 82.7386 72.6662 82.7386C73.7685 82.7386 74.7401 83.0142 75.581 83.5653C76.4219 84.1165 77.0781 84.8977 77.5497 85.9091C78.0213 86.9205 78.2571 88.1136 78.2571 89.4886C78.2571 90.875 78.0213 92.0767 77.5497 93.0938C77.0781 94.1051 76.4247 94.8892 75.5895 95.446C74.7543 95.9972 73.7912 96.2727 72.7003 96.2727C71.8594 96.2727 71.1861 96.1335 70.6804 95.8551C70.1747 95.571 69.7855 95.25 69.5128 94.892C69.2401 94.5284 69.0298 94.2273 68.8821 93.9886H68.7116V100.909H66.7003ZM68.6776 89.4545C68.6776 90.4432 68.8224 91.3153 69.1122 92.071C69.402 92.821 69.8253 93.4091 70.3821 93.8352C70.9389 94.2557 71.6207 94.4659 72.4276 94.4659C73.2685 94.4659 73.9702 94.2443 74.5327 93.8011C75.1009 93.3523 75.527 92.75 75.8111 91.9943C76.1009 91.233 76.2457 90.3864 76.2457 89.4545C76.2457 88.5341 76.1037 87.7045 75.8196 86.9659C75.5412 86.2216 75.1179 85.6335 74.5497 85.2017C73.9872 84.7642 73.2798 84.5455 72.4276 84.5455C71.6094 84.5455 70.9219 84.7528 70.3651 85.1676C69.8082 85.5767 69.3878 86.1506 69.1037 86.8892C68.8196 87.6222 68.6776 88.4773 68.6776 89.4545ZM85.1776 96.3068C84.348 96.3068 83.5952 96.1506 82.919 95.8381C82.2429 95.5199 81.706 95.0625 81.3082 94.4659C80.9105 93.8636 80.7116 93.1364 80.7116 92.2841C80.7116 91.5341 80.8594 90.9261 81.1548 90.4602C81.4503 89.9886 81.8452 89.6193 82.3395 89.3523C82.8338 89.0852 83.3793 88.8864 83.9759 88.7557C84.5781 88.6193 85.1832 88.5114 85.7912 88.4318C86.5866 88.3295 87.2315 88.2528 87.7259 88.2017C88.2259 88.1449 88.5895 88.0511 88.8168 87.9205C89.0497 87.7898 89.1662 87.5625 89.1662 87.2386V87.1705C89.1662 86.3295 88.9361 85.6761 88.4759 85.2102C88.0213 84.7443 87.331 84.5114 86.4048 84.5114C85.4446 84.5114 84.6918 84.7216 84.1463 85.142C83.6009 85.5625 83.2173 86.0114 82.9957 86.4886L81.0866 85.8068C81.4276 85.0114 81.8821 84.392 82.4503 83.9489C83.0241 83.5 83.6491 83.1875 84.3253 83.0114C85.0071 82.8295 85.6776 82.7386 86.3366 82.7386C86.7571 82.7386 87.2401 82.7898 87.7855 82.892C88.3366 82.9886 88.8679 83.1903 89.3793 83.4972C89.8963 83.804 90.3253 84.267 90.6662 84.8864C91.0071 85.5057 91.1776 86.3352 91.1776 87.375V96H89.1662V94.2273H89.0639C88.9276 94.5114 88.7003 94.8153 88.3821 95.1392C88.0639 95.4631 87.6406 95.7386 87.1122 95.9659C86.5838 96.1932 85.9389 96.3068 85.1776 96.3068ZM85.4844 94.5C86.2798 94.5 86.9503 94.3438 87.4957 94.0312C88.0469 93.7188 88.4616 93.3153 88.7401 92.821C89.0241 92.3267 89.1662 91.8068 89.1662 91.2614V89.4205C89.081 89.5227 88.8935 89.6165 88.6037 89.7017C88.3196 89.7812 87.9901 89.8523 87.6151 89.9148C87.2457 89.9716 86.8849 90.0227 86.5327 90.0682C86.1861 90.108 85.9048 90.142 85.6889 90.1705C85.1662 90.2386 84.6776 90.3494 84.223 90.5028C83.7741 90.6506 83.4105 90.875 83.1321 91.1761C82.8594 91.4716 82.723 91.875 82.723 92.3864C82.723 93.0852 82.9815 93.6136 83.4986 93.9716C84.0213 94.3239 84.6832 94.5 85.4844 94.5ZM103.61 88.5341V90.4091H96.3828V88.5341H103.61ZM96.8601 82.9091V96H94.8487V82.9091H96.8601ZM105.144 82.9091V96H103.133V82.9091H105.144ZM107.036 84.7841V82.9091H117.673V84.7841H113.377V96H111.366V84.7841H107.036ZM122.618 93.0341L128.925 82.9091H131.243V96H129.232V85.875L122.959 96H120.607V82.9091H122.618V93.0341ZM136.938 93.0341L143.245 82.9091H145.563V96H143.552V85.875L137.279 96H134.927V82.9091H136.938V93.0341Z" fill="white"/>
</svg>
