<svg width="191" height="140" viewBox="0 0 191 140" fill="none" xmlns="http://www.w3.org/2000/svg">
<circle cx="57.5" cy="74.5" r="47.5" fill="#B55C57"/>
<path d="M20.288 123.536C16.96 123.536 14.1867 122.768 11.968 121.232C9.792 119.696 8.17067 117.648 7.104 115.088C6.03733 112.528 5.504 109.776 5.504 106.832C5.504 104.443 5.90933 102.757 6.72 101.776C7.57333 100.752 8.59733 100.24 9.792 100.24C10.9867 100.24 11.904 100.709 12.544 101.648C13.184 102.587 13.504 104.059 13.504 106.064C13.504 107.259 13.2907 108.325 12.864 109.264C12.4373 110.203 12.0107 111.163 11.584 112.144C11.2 113.083 11.008 114.213 11.008 115.536C11.008 116.517 11.3067 117.541 11.904 118.608C12.5013 119.675 13.4187 120.592 14.656 121.36C15.936 122.085 17.5573 122.448 19.52 122.448C22.1227 122.448 24.1493 121.339 25.6 119.12C27.0507 116.859 28.0747 113.637 28.672 109.456C29.2693 105.275 29.568 100.261 29.568 94.416C29.568 88.912 29.3333 84.4107 28.864 80.912C28.3947 77.3707 27.7333 74.6187 26.88 72.656C26.0693 70.6507 25.1093 69.264 24 68.496C22.9333 67.6853 21.7813 67.28 20.544 67.28C18.5813 67.28 16.8747 67.7707 15.424 68.752C14.016 69.6907 12.8 71.0347 11.776 72.784C10.7947 74.4907 9.92 76.496 9.152 78.8L8 78.608L11.84 32.4H12.928C13.2267 33.2533 14.2507 34.1067 16 34.96C17.7493 35.7707 19.7547 36.4533 22.016 37.008C24.2773 37.52 26.3253 37.776 28.16 37.776C31.0613 37.776 33.536 37.2427 35.584 36.176C37.6747 35.1093 38.72 33.8507 38.72 32.4H39.296C39.296 34.9173 38.8693 37.1787 38.016 39.184C37.2053 41.1893 35.9467 42.768 34.24 43.92C32.576 45.072 30.464 45.648 27.904 45.648C25.856 45.648 23.9573 45.2427 22.208 44.432C20.4587 43.6213 18.9013 42.6187 17.536 41.424C16.2133 40.1867 15.1467 38.9707 14.336 37.776C13.5253 36.5387 13.056 35.536 12.928 34.768L9.536 75.984C9.96267 74.2347 10.7093 72.5707 11.776 70.992C12.8853 69.3707 14.2933 68.048 16 67.024C17.7493 66 19.776 65.488 22.08 65.488C24.2987 65.488 26.432 66 28.48 67.024C30.5707 68.0053 32.4693 69.6053 34.176 71.824C35.8827 74 37.2267 76.9227 38.208 80.592C39.1893 84.2613 39.68 88.784 39.68 94.16C39.68 100.091 39.0827 104.976 37.888 108.816C36.6933 112.613 35.136 115.6 33.216 117.776C31.296 119.909 29.2053 121.403 26.944 122.256C24.6827 123.109 22.464 123.536 20.288 123.536Z" fill="white"/>
<path d="M41.4432 70.75V65.125H42.5341C42.8011 64.8466 43.0313 64.5455 43.2244 64.2216C43.4176 63.8977 43.5852 63.5142 43.7273 63.071C43.875 62.6222 44 62.0767 44.1023 61.4347C44.2045 60.7869 44.2955 60.0057 44.375 59.0909L44.8182 53.9091H53.1364V65.125H55.1477V70.75H53.1364V67H43.4545V70.75H41.4432ZM44.8182 65.125H51.125V55.7841H46.6932L46.3523 59.0909C46.2102 60.4602 46.0341 61.6562 45.8239 62.679C45.6136 63.7017 45.2784 64.517 44.8182 65.125ZM66.5788 59.5341V61.4091H59.3516V59.5341H66.5788ZM59.8288 53.9091V67H57.8175V53.9091H59.8288ZM68.1129 53.9091V67H66.1016V53.9091H68.1129ZM77.2749 67.2727C76.0135 67.2727 74.9254 66.9943 74.0107 66.4375C73.1016 65.875 72.3999 65.0909 71.9055 64.0852C71.4169 63.0739 71.1726 61.8977 71.1726 60.5568C71.1726 59.2159 71.4169 58.0341 71.9055 57.0114C72.3999 55.983 73.0874 55.1818 73.968 54.608C74.8544 54.0284 75.8885 53.7386 77.0703 53.7386C77.7521 53.7386 78.4254 53.8523 79.0902 54.0795C79.755 54.3068 80.3601 54.6761 80.9055 55.1875C81.451 55.6932 81.8857 56.3636 82.2095 57.1989C82.5334 58.0341 82.6953 59.0625 82.6953 60.2841V61.1364H72.6044V59.3977H80.6499C80.6499 58.6591 80.5021 58 80.2067 57.4205C79.9169 56.8409 79.5021 56.3835 78.9624 56.0483C78.4283 55.7131 77.7976 55.5455 77.0703 55.5455C76.2692 55.5455 75.576 55.7443 74.9908 56.142C74.4112 56.5341 73.9652 57.0455 73.6527 57.6761C73.3402 58.3068 73.1839 58.983 73.1839 59.7045V60.8636C73.1839 61.8523 73.3544 62.6903 73.6953 63.3778C74.0419 64.0597 74.522 64.5795 75.1357 64.9375C75.7493 65.2898 76.4624 65.4659 77.2749 65.4659C77.8033 65.4659 78.2805 65.392 78.7067 65.2443C79.1385 65.0909 79.5107 64.8636 79.8232 64.5625C80.1357 64.2557 80.3771 63.875 80.5476 63.4205L82.4908 63.9659C82.2862 64.625 81.9425 65.2045 81.4595 65.7045C80.9766 66.1989 80.38 66.5852 79.6697 66.8636C78.9595 67.1364 78.1612 67.2727 77.2749 67.2727ZM87.7663 64.0341L94.0732 53.9091H96.3913V67H94.38V56.875L88.1072 67H85.755V53.9091H87.7663V64.0341ZM92.7436 49.5455H94.6186C94.6186 50.4659 94.3004 51.2188 93.6641 51.804C93.0277 52.3892 92.1641 52.6818 91.0732 52.6818C89.9993 52.6818 89.1442 52.3892 88.5078 51.804C87.8771 51.2188 87.5618 50.4659 87.5618 49.5455H89.4368C89.4368 49.9886 89.5589 50.3778 89.8033 50.7131C90.0533 51.0483 90.4766 51.2159 91.0732 51.2159C91.6697 51.2159 92.0959 51.0483 92.3516 50.7131C92.6129 50.3778 92.7436 49.9886 92.7436 49.5455ZM42.8409 96V82.9091H48.1932C49.6023 82.9091 50.7216 83.2273 51.5511 83.8636C52.3807 84.5 52.7955 85.3409 52.7955 86.3864C52.7955 87.1818 52.5597 87.7983 52.0881 88.2358C51.6165 88.6676 51.0114 88.9602 50.2727 89.1136C50.7557 89.1818 51.2244 89.3523 51.679 89.625C52.1392 89.8977 52.5199 90.2727 52.821 90.75C53.1222 91.2216 53.2727 91.8011 53.2727 92.4886C53.2727 93.1591 53.1023 93.7585 52.7614 94.2869C52.4205 94.8153 51.9318 95.233 51.2955 95.5398C50.6591 95.8466 49.8977 96 49.0114 96H42.8409ZM44.75 94.1591H49.0114C49.7045 94.1591 50.2472 93.9943 50.6392 93.6648C51.0313 93.3352 51.2273 92.8864 51.2273 92.3182C51.2273 91.642 51.0313 91.1108 50.6392 90.7244C50.2472 90.3324 49.7045 90.1364 49.0114 90.1364H44.75V94.1591ZM44.75 88.3977H48.1932C48.733 88.3977 49.196 88.3239 49.5824 88.1761C49.9688 88.0227 50.2642 87.8068 50.4688 87.5284C50.679 87.2443 50.7841 86.9091 50.7841 86.5227C50.7841 85.9716 50.554 85.5398 50.0938 85.2273C49.6335 84.9091 49 84.75 48.1932 84.75H44.75V88.3977ZM58.0561 87.6477H61.8061C63.3402 87.6477 64.5135 88.0369 65.326 88.8153C66.1385 89.5937 66.5447 90.5795 66.5447 91.7727C66.5447 92.5568 66.3629 93.2699 65.9993 93.9119C65.6357 94.5483 65.1016 95.0568 64.397 95.4375C63.6925 95.8125 62.8288 96 61.8061 96H56.3175V82.9091H58.3288V94.125H61.8061C62.6016 94.125 63.255 93.9148 63.7663 93.4943C64.2777 93.0739 64.5334 92.5341 64.5334 91.875C64.5334 91.1818 64.2777 90.6165 63.7663 90.179C63.255 89.7415 62.6016 89.5227 61.8061 89.5227H58.0561V87.6477ZM68.6243 96V82.9091H70.6357V96H68.6243ZM74.3175 96V82.9091H84.6129V96H82.6016V84.7841H76.3288V96H74.3175ZM93.6044 96.2727C92.4226 96.2727 91.3857 95.9915 90.4936 95.429C89.6072 94.8665 88.9141 94.0795 88.4141 93.0682C87.9197 92.0568 87.6726 90.875 87.6726 89.5227C87.6726 88.1591 87.9197 86.9687 88.4141 85.9517C88.9141 84.9347 89.6072 84.1449 90.4936 83.5824C91.3857 83.0199 92.4226 82.7386 93.6044 82.7386C94.7862 82.7386 95.8203 83.0199 96.7067 83.5824C97.5987 84.1449 98.2919 84.9347 98.7862 85.9517C99.2862 86.9687 99.5362 88.1591 99.5362 89.5227C99.5362 90.875 99.2862 92.0568 98.7862 93.0682C98.2919 94.0795 97.5987 94.8665 96.7067 95.429C95.8203 95.9915 94.7862 96.2727 93.6044 96.2727ZM93.6044 94.4659C94.5021 94.4659 95.2408 94.2358 95.8203 93.7756C96.3999 93.3153 96.8288 92.7102 97.1072 91.9602C97.3857 91.2102 97.5249 90.3977 97.5249 89.5227C97.5249 88.6477 97.3857 87.8324 97.1072 87.0767C96.8288 86.321 96.3999 85.7102 95.8203 85.2443C95.2408 84.7784 94.5021 84.5455 93.6044 84.5455C92.7067 84.5455 91.968 84.7784 91.3885 85.2443C90.8089 85.7102 90.38 86.321 90.1016 87.0767C89.8232 87.8324 89.6839 88.6477 89.6839 89.5227C89.6839 90.3977 89.8232 91.2102 90.1016 91.9602C90.38 92.7102 90.8089 93.3153 91.3885 93.7756C91.968 94.2358 92.7067 94.4659 93.6044 94.4659ZM101.447 96V94.125H101.925C102.317 94.125 102.643 94.0483 102.905 93.8949C103.166 93.7358 103.376 93.4602 103.536 93.0682C103.7 92.6705 103.825 92.1193 103.911 91.4148C104.001 90.7045 104.067 89.8011 104.107 88.7045L104.345 82.9091H113.072V96H111.061V84.7841H106.254L106.05 89.4545C106.004 90.5284 105.908 91.4744 105.76 92.2926C105.618 93.1051 105.399 93.7869 105.104 94.3381C104.814 94.8892 104.428 95.304 103.945 95.5824C103.462 95.8608 102.857 96 102.129 96H101.447ZM125.524 88.5341V90.4091H118.297V88.5341H125.524ZM118.774 82.9091V96H116.763V82.9091H118.774ZM127.058 82.9091V96H125.047V82.9091H127.058ZM136.22 96.2727C134.959 96.2727 133.871 95.9943 132.956 95.4375C132.047 94.875 131.345 94.0909 130.851 93.0852C130.362 92.0739 130.118 90.8977 130.118 89.5568C130.118 88.2159 130.362 87.0341 130.851 86.0114C131.345 84.983 132.033 84.1818 132.913 83.608C133.8 83.0284 134.834 82.7386 136.016 82.7386C136.697 82.7386 137.371 82.8523 138.036 83.0795C138.7 83.3068 139.305 83.6761 139.851 84.1875C140.396 84.6932 140.831 85.3636 141.155 86.1989C141.479 87.0341 141.641 88.0625 141.641 89.2841V90.1364H131.55V88.3977H139.595C139.595 87.6591 139.447 87 139.152 86.4205C138.862 85.8409 138.447 85.3835 137.908 85.0483C137.374 84.7131 136.743 84.5455 136.016 84.5455C135.214 84.5455 134.521 84.7443 133.936 85.142C133.357 85.5341 132.911 86.0455 132.598 86.6761C132.286 87.3068 132.129 87.983 132.129 88.7045V89.8636C132.129 90.8523 132.3 91.6903 132.641 92.3778C132.987 93.0597 133.467 93.5795 134.081 93.9375C134.695 94.2898 135.408 94.4659 136.22 94.4659C136.749 94.4659 137.226 94.392 137.652 94.2443C138.084 94.0909 138.456 93.8636 138.768 93.5625C139.081 93.2557 139.322 92.875 139.493 92.4205L141.436 92.9659C141.232 93.625 140.888 94.2045 140.405 94.7045C139.922 95.1989 139.325 95.5852 138.615 95.8636C137.905 96.1364 137.107 96.2727 136.22 96.2727ZM153.462 88.5341V90.4091H146.234V88.5341H153.462ZM146.712 82.9091V96H144.7V82.9091H146.712ZM154.996 82.9091V96H152.984V82.9091H154.996ZM160.68 93.0341L166.987 82.9091H169.305V96H167.294V85.875L161.021 96H158.669V82.9091H160.68V93.0341ZM178.478 96.2727C177.217 96.2727 176.129 95.9943 175.214 95.4375C174.305 94.875 173.603 94.0909 173.109 93.0852C172.62 92.0739 172.376 90.8977 172.376 89.5568C172.376 88.2159 172.62 87.0341 173.109 86.0114C173.603 84.983 174.29 84.1818 175.171 83.608C176.058 83.0284 177.092 82.7386 178.273 82.7386C178.955 82.7386 179.629 82.8523 180.293 83.0795C180.958 83.3068 181.563 83.6761 182.109 84.1875C182.654 84.6932 183.089 85.3636 183.413 86.1989C183.737 87.0341 183.898 88.0625 183.898 89.2841V90.1364H173.808V88.3977H181.853C181.853 87.6591 181.705 87 181.41 86.4205C181.12 85.8409 180.705 85.3835 180.165 85.0483C179.631 84.7131 179.001 84.5455 178.273 84.5455C177.472 84.5455 176.779 84.7443 176.194 85.142C175.614 85.5341 175.168 86.0455 174.856 86.6761C174.543 87.3068 174.387 87.983 174.387 88.7045V89.8636C174.387 90.8523 174.558 91.6903 174.898 92.3778C175.245 93.0597 175.725 93.5795 176.339 93.9375C176.952 94.2898 177.665 94.4659 178.478 94.4659C179.006 94.4659 179.484 94.392 179.91 94.2443C180.342 94.0909 180.714 93.8636 181.026 93.5625C181.339 93.2557 181.58 92.875 181.751 92.4205L183.694 92.9659C183.489 93.625 183.146 94.2045 182.663 94.7045C182.18 95.1989 181.583 95.5852 180.873 95.8636C180.163 96.1364 179.364 96.2727 178.478 96.2727ZM42.8409 129.909V111.909H44.7841V113.989H45.0227C45.1705 113.761 45.375 113.472 45.6364 113.119C45.9034 112.761 46.2841 112.443 46.7784 112.165C47.2784 111.881 47.9545 111.739 48.8068 111.739C49.9091 111.739 50.8807 112.014 51.7216 112.565C52.5625 113.116 53.2188 113.898 53.6903 114.909C54.1619 115.92 54.3977 117.114 54.3977 118.489C54.3977 119.875 54.1619 121.077 53.6903 122.094C53.2188 123.105 52.5653 123.889 51.7301 124.446C50.8949 124.997 49.9318 125.273 48.8409 125.273C48 125.273 47.3267 125.134 46.821 124.855C46.3153 124.571 45.9261 124.25 45.6534 123.892C45.3807 123.528 45.1705 123.227 45.0227 122.989H44.8523V129.909H42.8409ZM44.8182 118.455C44.8182 119.443 44.9631 120.315 45.2528 121.071C45.5426 121.821 45.9659 122.409 46.5227 122.835C47.0795 123.256 47.7614 123.466 48.5682 123.466C49.4091 123.466 50.1108 123.244 50.6733 122.801C51.2415 122.352 51.6676 121.75 51.9517 120.994C52.2415 120.233 52.3864 119.386 52.3864 118.455C52.3864 117.534 52.2443 116.705 51.9602 115.966C51.6818 115.222 51.2585 114.634 50.6903 114.202C50.1278 113.764 49.4205 113.545 48.5682 113.545C47.75 113.545 47.0625 113.753 46.5057 114.168C45.9489 114.577 45.5284 115.151 45.2443 115.889C44.9602 116.622 44.8182 117.477 44.8182 118.455ZM61.3182 125.307C60.4886 125.307 59.7358 125.151 59.0597 124.838C58.3835 124.52 57.8466 124.062 57.4489 123.466C57.0511 122.864 56.8523 122.136 56.8523 121.284C56.8523 120.534 57 119.926 57.2955 119.46C57.5909 118.989 57.9858 118.619 58.4801 118.352C58.9744 118.085 59.5199 117.886 60.1165 117.756C60.7188 117.619 61.3239 117.511 61.9318 117.432C62.7273 117.33 63.3722 117.253 63.8665 117.202C64.3665 117.145 64.7301 117.051 64.9574 116.92C65.1903 116.79 65.3068 116.562 65.3068 116.239V116.17C65.3068 115.33 65.0767 114.676 64.6165 114.21C64.1619 113.744 63.4716 113.511 62.5455 113.511C61.5852 113.511 60.8324 113.722 60.2869 114.142C59.7415 114.562 59.358 115.011 59.1364 115.489L57.2273 114.807C57.5682 114.011 58.0227 113.392 58.5909 112.949C59.1648 112.5 59.7898 112.187 60.4659 112.011C61.1477 111.83 61.8182 111.739 62.4773 111.739C62.8977 111.739 63.3807 111.79 63.9261 111.892C64.4773 111.989 65.0085 112.19 65.5199 112.497C66.0369 112.804 66.4659 113.267 66.8068 113.886C67.1477 114.506 67.3182 115.335 67.3182 116.375V125H65.3068V123.227H65.2045C65.0682 123.511 64.8409 123.815 64.5227 124.139C64.2045 124.463 63.7813 124.739 63.2528 124.966C62.7244 125.193 62.0795 125.307 61.3182 125.307ZM61.625 123.5C62.4205 123.5 63.0909 123.344 63.6364 123.031C64.1875 122.719 64.6023 122.315 64.8807 121.821C65.1648 121.327 65.3068 120.807 65.3068 120.261V118.42C65.2216 118.523 65.0341 118.616 64.7443 118.702C64.4602 118.781 64.1307 118.852 63.7557 118.915C63.3864 118.972 63.0256 119.023 62.6733 119.068C62.3267 119.108 62.0455 119.142 61.8295 119.17C61.3068 119.239 60.8182 119.349 60.3636 119.503C59.9148 119.651 59.5511 119.875 59.2727 120.176C59 120.472 58.8636 120.875 58.8636 121.386C58.8636 122.085 59.1222 122.614 59.6392 122.972C60.1619 123.324 60.8239 123.5 61.625 123.5ZM80.7053 107L81.728 108.227C81.3303 108.614 80.87 108.884 80.3473 109.037C79.8246 109.19 79.2337 109.284 78.5746 109.318C77.9155 109.352 77.1825 109.386 76.3757 109.42C75.4666 109.455 74.7138 109.676 74.1172 110.085C73.5206 110.494 73.0604 111.085 72.7365 111.858C72.4126 112.631 72.2053 113.58 72.1143 114.705H72.2848C72.728 113.886 73.3416 113.284 74.1257 112.898C74.9098 112.511 75.7507 112.318 76.6484 112.318C77.6712 112.318 78.5916 112.557 79.4098 113.034C80.228 113.511 80.8757 114.219 81.353 115.156C81.8303 116.094 82.0689 117.25 82.0689 118.625C82.0689 119.994 81.8246 121.176 81.3359 122.17C80.853 123.165 80.174 123.932 79.299 124.472C78.4297 125.006 77.4098 125.273 76.2393 125.273C75.0689 125.273 74.0433 124.997 73.1626 124.446C72.282 123.889 71.5973 123.065 71.1087 121.974C70.62 120.878 70.3757 119.523 70.3757 117.909V116.511C70.3757 113.597 70.87 111.386 71.8587 109.881C72.853 108.375 74.3473 107.597 76.3416 107.545C77.0462 107.523 77.674 107.517 78.2251 107.528C78.7763 107.54 79.2564 107.514 79.6655 107.452C80.0746 107.389 80.4212 107.239 80.7053 107ZM76.2393 123.466C77.0291 123.466 77.7081 123.267 78.2763 122.869C78.8501 122.472 79.2905 121.912 79.5973 121.19C79.9041 120.463 80.0575 119.608 80.0575 118.625C80.0575 117.67 79.9013 116.858 79.5888 116.188C79.282 115.517 78.8416 115.006 78.2678 114.653C77.6939 114.301 77.0064 114.125 76.2053 114.125C75.62 114.125 75.0945 114.224 74.6286 114.423C74.1626 114.622 73.7649 114.915 73.4354 115.301C73.1058 115.687 72.8501 116.159 72.6683 116.716C72.4922 117.273 72.3984 117.909 72.3871 118.625C72.3871 120.091 72.7308 121.264 73.4183 122.145C74.1058 123.026 75.0462 123.466 76.2393 123.466ZM90.4638 125.273C89.282 125.273 88.245 124.991 87.353 124.429C86.4666 123.866 85.7734 123.08 85.2734 122.068C84.7791 121.057 84.532 119.875 84.532 118.523C84.532 117.159 84.7791 115.969 85.2734 114.952C85.7734 113.935 86.4666 113.145 87.353 112.582C88.245 112.02 89.282 111.739 90.4638 111.739C91.6456 111.739 92.6797 112.02 93.5661 112.582C94.4581 113.145 95.1513 113.935 95.6456 114.952C96.1456 115.969 96.3956 117.159 96.3956 118.523C96.3956 119.875 96.1456 121.057 95.6456 122.068C95.1513 123.08 94.4581 123.866 93.5661 124.429C92.6797 124.991 91.6456 125.273 90.4638 125.273ZM90.4638 123.466C91.3615 123.466 92.1001 123.236 92.6797 122.776C93.2592 122.315 93.6882 121.71 93.9666 120.96C94.245 120.21 94.3842 119.398 94.3842 118.523C94.3842 117.648 94.245 116.832 93.9666 116.077C93.6882 115.321 93.2592 114.71 92.6797 114.244C92.1001 113.778 91.3615 113.545 90.4638 113.545C89.5661 113.545 88.8274 113.778 88.2479 114.244C87.6683 114.71 87.2393 115.321 86.9609 116.077C86.6825 116.832 86.5433 117.648 86.5433 118.523C86.5433 119.398 86.6825 120.21 86.9609 120.96C87.2393 121.71 87.6683 122.315 88.2479 122.776C88.8274 123.236 89.5661 123.466 90.4638 123.466ZM97.755 113.784V111.909H108.391V113.784H104.096V125H102.085V113.784H97.755Z" fill="white"/>
</svg>
