<svg width="108" height="84" viewBox="0 0 108 84" fill="none" xmlns="http://www.w3.org/2000/svg">
<g clip-path="url(#clip0_11_40)">
<path d="M16.56 2.78V79.25L50.41 56.07V6.43L16.56 2.78Z" fill="white" stroke="#457FB5" stroke-width="5" stroke-miterlimit="10"/>
<path d="M86.76 2.78V79.25L52.91 56.07V6.42L86.76 2.78Z" fill="white" stroke="black" stroke-width="5" stroke-miterlimit="10"/>
<path d="M74.87 31.37C76.23 31.37 77.29 31.81 78.03 32.69C78.78 33.57 79.15 34.77 79.15 36.28C79.15 37.84 78.76 39.05 77.98 39.93C77.2 40.81 76.16 41.24 74.86 41.24C73.5 41.24 72.45 40.8 71.69 39.91C70.93 39.02 70.55 37.81 70.55 36.28C70.55 34.82 70.95 33.63 71.74 32.73C72.55 31.82 73.59 31.37 74.87 31.37ZM74.87 39.86C75.66 39.86 76.28 39.53 76.72 38.87C77.16 38.21 77.38 37.35 77.38 36.27C77.38 33.92 76.54 32.75 74.87 32.75C74.08 32.75 73.45 33.07 73 33.71C72.55 34.35 72.32 35.2 72.32 36.28C72.33 38.67 73.18 39.86 74.87 39.86Z" fill="#457FB5"/>
<path d="M88.44 41.11C88.27 41.13 88.07 41.15 87.82 41.15C86.71 41.15 86.07 40.59 85.91 39.48C85.77 38.53 85.45 37.84 84.95 37.4C84.45 36.96 83.73 36.74 82.78 36.74H82.64V41.06H80.94V31.55H82.64V35.35H82.87C83.75 35.35 84.43 35.17 84.9 34.8C85.37 34.44 85.68 33.87 85.81 33.11C86 32.01 86.62 31.46 87.68 31.46C87.88 31.46 88.08 31.47 88.27 31.5V32.96C88.19 32.95 88.05 32.94 87.83 32.94C87.56 32.94 87.4 33.12 87.32 33.48C87.05 34.81 86.27 35.66 84.96 36.05C86.33 36.52 87.17 37.56 87.48 39.17C87.56 39.51 87.72 39.68 87.98 39.68C88.21 39.68 88.36 39.67 88.43 39.64V41.11H88.44Z" fill="#457FB5"/>
<path d="M94.02 31.37C95.38 31.37 96.44 31.81 97.18 32.69C97.93 33.57 98.3 34.77 98.3 36.28C98.3 37.84 97.91 39.05 97.13 39.93C96.35 40.81 95.31 41.24 94.01 41.24C92.65 41.24 91.6 40.8 90.84 39.91C90.08 39.02 89.7 37.81 89.7 36.28C89.7 34.82 90.1 33.63 90.89 32.73C91.7 31.82 92.74 31.37 94.02 31.37ZM94.02 39.86C94.81 39.86 95.43 39.53 95.87 38.87C96.31 38.21 96.53 37.35 96.53 36.27C96.53 33.92 95.69 32.75 94.02 32.75C93.23 32.75 92.6 33.07 92.15 33.71C91.7 34.35 91.47 35.2 91.47 36.28C91.47 38.67 92.32 39.86 94.02 39.86Z" fill="#457FB5"/>
<path d="M107.86 41.06H106.16V36.77H101.78V41.06H100.08V31.55H101.78V35.37H106.16V31.55H107.86V41.06Z" fill="#457FB5"/>
<path d="M8.73 41.3H7.04V33.13H4.49C4.46 34.47 4.32 35.7 4.08 36.84C3.84 37.97 3.51 38.91 3.09 39.65C2.68 40.39 2.23 40.86 1.74 41.08C1.26 41.3 0.68 41.41 0 41.41V39.87C1.06 39.87 1.81 39.05 2.25 37.41C2.69 35.77 2.91 34.2 2.91 32.69V31.8H8.72V41.3H8.73Z" fill="black"/>
<path d="M19.07 41.3H17.38V34.79L11.45 41.55H11.07V31.79H12.77V38.3L18.69 31.54H19.07V41.3Z" fill="black"/>
<path d="M27.59 33.21H23.16V41.3H21.46V31.79H27.58V33.21H27.59Z" fill="black"/>
<path d="M34.61 40.21C33.92 41.06 32.89 41.48 31.52 41.48C30.77 41.48 30.12 41.21 29.58 40.66C29.04 40.12 28.76 39.44 28.76 38.65C28.76 37.69 29.18 36.87 30.02 36.21C30.86 35.55 31.93 35.22 33.25 35.22C33.61 35.22 34.02 35.29 34.47 35.43C34.47 33.89 33.78 33.12 32.39 33.12C31.35 33.12 30.54 33.41 29.96 33.98L29.25 32.58C29.53 32.34 29.96 32.12 30.54 31.91C31.12 31.71 31.67 31.61 32.21 31.61C33.55 31.61 34.54 31.91 35.17 32.52C35.81 33.13 36.13 34.14 36.13 35.56V38.96C36.13 39.79 36.38 40.35 36.88 40.63V41.46C36.15 41.46 35.62 41.35 35.29 41.13C34.96 40.91 34.73 40.61 34.61 40.21ZM34.47 36.63C33.87 36.51 33.49 36.44 33.34 36.44C32.49 36.44 31.79 36.66 31.25 37.11C30.71 37.55 30.44 38.07 30.44 38.66C30.44 39.65 31.02 40.15 32.19 40.15C33.02 40.15 33.78 39.74 34.46 38.93V36.63H34.47Z" fill="black"/>
</g>
<defs>
<clipPath id="clip0_11_40">
<rect width="107.86" height="84" fill="white"/>
</clipPath>
</defs>
</svg>
